Coordinates
version=1
nRows=40
nColumns=30
inDegrees=yes

Units are S.I. units (second, meters, Newtons, ...)
Angles are in degrees.

endheader
time	floatyaw	floatroll	floatpitch	floatx	floaty	floatz	pro_sup_l	deviation_l	flexion_l	cmc_flexion_l	cmc_abduction_l	mp_flexion_l	ip_flexion_l	2mcp_flexion_l	2mcp_abduction_l	2pm_flexion_l	2md_flexion_l	3mcp_flexion_l	3mcp_abduction_l	3pm_flexion_l	3md_flexion_l	4mcp_flexion_l	4mcp_abduction_l	4pm_flexion_l	4md_flexion_l	5mcp_flexion_l	5mcp_abduction_l	5pm_flexion_l	5md_flexion_l
0.005000	-2.809327	-3.522153	94.733797	0.179275	-0.289055	0.189808	122.546696	22.572694	30.212630	11.577444	30.080480	-22.546603	-45.773501	52.120676	12.138405	49.281423	56.872335	51.856387	6.617820	54.602044	62.410690	50.599320	-6.533621	74.674192	60.171415	26.631432	-13.533030	75.102967	59.496515
0.015000	-2.809327	-3.522153	94.733797	0.178941	-0.288224	0.189615	122.634423	22.413022	29.660013	12.783454	30.553020	-22.979730	-48.577986	52.500812	12.288673	49.853874	57.812056	52.068586	6.618179	55.467139	63.295724	50.755094	-6.586378	75.656879	60.962991	26.616460	-13.566496	76.072476	60.072088
0.025000	-2.809327	-3.522153	94.733797	0.178584	-0.287351	0.189372	122.681032	22.230655	29.144581	13.875008	30.831222	-23.426548	-51.027594	52.851264	12.427570	50.394102	58.663915	52.273501	6.617507	56.286595	64.096555	50.924572	-6.631585	76.603323	61.690395	26.613393	-13.596813	77.029773	60.608737
0.035000	-2.809327	-3.522153	94.733797	0.178204	-0.286473	0.189085	122.696582	22.037286	28.683813	14.854321	30.923694	-23.887689	-53.084954	53.167600	12.554187	50.873529	59.441736	52.468159	6.616458	57.042131	64.818988	51.096639	-6.669123	77.500313	62.356225	26.612494	-13.623854	77.961045	61.099974
0.045000	-2.809327	-3.522153	94.733797	0.177802	-0.285647	0.188761	122.688796	21.838373	28.294346	15.718264	30.873946	-24.342223	-54.742561	53.449084	12.667623	51.257859	60.163707	52.651409	6.616920	57.712058	65.473335	51.262552	-6.698791	78.329875	62.963369	26.607919	-13.648791	78.844788	61.543162
0.055000	-2.809327	-3.522153	94.733797	0.177377	-0.284940	0.188409	122.656845	21.630392	27.990629	16.453290	30.746510	-24.751491	-56.013778	53.694689	12.765756	51.518923	60.839688	52.822109	6.621324	58.275009	66.067691	51.416005	-6.720422	79.068597	63.510564	26.597620	-13.674245	79.650781	61.937233
0.065000	-2.809327	-3.522153	94.733797	0.176931	-0.284404	0.188039	122.592645	21.404182	27.780074	17.040228	30.607529	-25.072955	-56.927141	53.900903	12.845535	51.647676	61.462647	52.977849	6.631559	58.716061	66.605187	51.552131	-6.734302	79.692984	63.992277	26.581786	-13.703081	80.345742	62.281188
0.075000	-2.809327	-3.522153	94.733797	0.176472	-0.284058	0.187669	122.489624	21.152953	27.657037	17.465677	30.507272	-25.277157	-57.524472	54.063158	12.904300	51.659340	62.010703	53.115470	6.647971	59.031738	67.086330	51.667047	-6.741535	80.188102	64.402692	26.561697	-13.736341	80.903402	62.573760
0.085000	-2.809327	-3.522153	94.733797	0.176018	-0.283882	0.187327	122.352956	20.879784	27.600169	17.732848	30.470906	-25.358975	-57.860601	54.179986	12.941216	51.587266	62.458837	53.233304	6.669006	59.231453	67.513508	51.758644	-6.744048	80.554392	64.740670	26.539451	-13.771913	81.314252	62.814026
0.095000	-2.809327	-3.522153	94.733797	0.175587	-0.283827	0.187044	122.203355	20.599408	27.576605	17.865623	30.499475	-25.338240	-58.001694	54.256858	12.958104	51.470170	62.792570	53.333379	6.691752	59.335605	67.893138	51.827953	-6.744192	80.808874	65.012132	26.517686	-13.805252	81.590407	63.002655
0.105000	-2.809327	-3.522153	94.733797	0.175198	-0.283835	0.186849	122.070854	20.333107	27.552288	17.903951	30.578076	-25.251030	-58.019803	54.306500	12.959408	51.341266	63.014978	53.421536	6.713116	59.372058	68.233314	51.879685	-6.744148	80.980587	65.228392	26.498734	-13.831857	81.763417	63.143254
0.115000	-2.809327	-3.522153	94.733797	0.174861	-0.283859	0.186755	121.982153	20.100169	27.503512	17.893143	30.685831	-25.136888	-57.983160	54.344789	12.951241	51.224272	63.143967	53.504954	6.730974	59.371819	68.539252	51.921034	-6.745420	81.102735	65.401950	26.483721	-13.849694	81.875674	63.242868
0.125000	-2.809327	-3.522153	94.733797	0.174582	-0.283876	0.186758	121.949232	19.911085	27.423781	17.871979	30.803346	-25.027532	-57.944717	54.384533	12.939772	51.134559	63.203607	53.588728	6.744734	59.363420	68.811211	51.959014	-6.748584	81.204479	65.542802	26.472343	-13.859892	81.968416	63.310943
0.135000	-2.809327	-3.522153	94.733797	0.174360	-0.283881	0.186829	121.965352	19.765549	27.323085	17.864434	30.916163	-24.940680	-57.933739	54.430819	12.929567	51.080781	63.216177	53.673727	6.755159	59.366627	69.047259	51.997663	-6.753311	81.304806	65.657536	26.463183	-13.865463	82.070594	63.357077
0.145000	-2.809327	-3.522153	94.733797	0.174189	-0.283879	0.186932	122.009544	19.654956	27.221031	17.877625	31.014878	-24.879948	-57.954739	54.480304	12.922618	51.064906	63.198782	53.756680	6.763680	59.388397	69.248436	52.036518	-6.758665	81.410260	65.750958	26.453892	-13.869171	82.192590	63.388928
0.155000	-2.809327	-3.522153	94.733797	0.174066	-0.283877	0.187031	122.056153	19.566946	27.137816	17.905452	31.093761	-24.839156	-57.994499	54.524335	12.918424	51.081986	63.163893	53.831915	6.771633	59.424021	69.421492	52.071187	-6.763602	81.517177	65.828126	26.441147	-13.872071	82.326805	63.411655
0.165000	-2.809327	-3.522153	94.733797	0.173984	-0.283877	0.187102	122.084430	19.489660	27.086920	17.935227	31.149842	-24.808067	-58.033687	54.554055	12.914915	51.121446	63.120920	53.893854	6.779766	59.463041	69.576804	52.095928	-6.767467	81.617012	65.894924	26.421241	-13.873469	82.454208	63.428971
0.175000	-2.809327	-3.522153	94.733797	0.173935	-0.283877	0.187138	122.084329	19.414531	27.071567	17.954305	31.183514	-24.777177	-58.057640	54.565187	12.909680	51.170040	63.076797	53.939590	6.788169	59.496095	69.723451	52.107223	-6.770267	81.701868	65.957009	26.391943	-13.872068	82.553850	63.444437
0.185000	-2.809327	-3.522153	94.733797	0.173908	-0.283873	0.187144	122.057138	19.337393	27.085311	17.954872	31.200055	-24.740688	-58.062066	54.560419	12.900973	51.215574	63.035347	53.970736	6.796516	59.518923	69.865392	52.106630	-6.772563	81.767825	66.018220	26.354902	-13.867420	82.611939	63.461478
0.195000	-2.809327	-3.522153	94.733797	0.173894	-0.283865	0.187136	122.011920	19.258112	27.115753	17.936010	31.210195	-24.697551	-58.052442	54.548375	12.888241	51.250356	62.996292	53.993578	6.804415	59.532437	70.001140	52.101296	-6.775092	81.815545	66.079520	26.316713	-13.860849	82.627687	63.481989
0.205000	-2.809327	-3.522153	94.733797	0.173885	-0.283855	0.187126	121.960041	19.179143	27.149637	17.902862	31.228064	-24.650630	-58.038621	54.539829	12.872106	51.273149	62.955072	54.017098	6.811629	59.540352	70.126466	52.101582	-6.778356	81.849069	66.138837	26.287223	-13.855391	82.614050	63.504755
0.215000	-2.809327	-3.522153	94.733797	0.173877	-0.283844	0.187122	121.910296	19.103664	27.177255	17.863525	31.266402	-24.604359	-58.027677	54.543099	12.853909	51.288650	62.904196	54.049549	6.818120	59.546717	70.237773	52.116812	-6.782386	81.874062	66.191750	26.275582	-13.854708	82.592871	63.525154
0.225000	-2.809327	-3.522153	94.733797	0.173868	-0.283835	0.187125	121.866331	19.034002	27.194609	17.825128	31.331087	-24.561963	-58.018504	54.560839	12.835040	51.304739	62.835966	54.095097	6.823984	59.554941	70.333922	52.151279	-6.786753	81.896361	66.232972	26.286229	-13.861395	82.586313	63.536897
0.235000	-2.809327	-3.522153	94.733797	0.173858	-0.283828	0.187130	121.826781	18.970785	27.202858	17.790897	31.418233	-24.523514	-58.001090	54.589573	12.816361	51.328723	62.745784	54.152268	6.829390	59.568042	70.416280	52.202623	-6.790763	81.921058	66.258482	26.317123	-13.875515	82.608553	63.535246
0.245000	-2.809327	-3.522153	94.733797	0.173847	-0.283819	0.187127	121.787328	18.912864	27.205874	17.759432	31.516138	-24.485676	-57.961337	54.622020	12.797962	51.363904	62.634934	54.215084	6.834548	59.588632	70.488332	52.263368	-6.793708	81.951959	66.267735	26.361028	-13.894275	82.661692	63.520050
0.255000	-2.809327	-3.522153	94.733797	0.173831	-0.283808	0.187110	121.743421	18.857819	27.207375	17.726317	31.611182	-24.443256	-57.889187	54.650900	12.779339	51.407667	62.511572	54.276280	6.839654	59.617825	70.555637	52.324571	-6.795092	81.991246	66.264826	26.408828	-13.913145	82.737443	63.496769
0.265000	-2.809327	-3.522153	94.733797	0.173808	-0.283792	0.187076	121.692532	18.802816	27.209037	17.686992	31.693955	-24.391864	-57.785223	54.672183	12.759872	51.452004	62.388891	54.330706	6.844819	59.653996	70.625227	52.379456	-6.794753	82.039355	66.257603	26.453005	-13.927867	82.822836	63.474742
0.275000	-2.809327	-3.522153	94.733797	0.173772	-0.283774	0.187029	121.635217	18.745557	27.210197	17.639101	31.761985	-24.330331	-57.661426	54.686204	12.739325	51.486563	62.280602	54.377065	6.850015	59.692863	70.703534	52.425255	-6.792886	82.095091	66.254836	26.489736	-13.936206	82.906367	63.463432
0.285000	-2.809327	-3.522153	94.733797	0.173723	-0.283754	0.186974	121.574720	18.684962	27.208889	17.583003	31.818261	-24.261434	-57.535490	54.696459	12.718087	51.502883	62.195607	54.417392	6.855105	59.729114	70.793505	52.462847	-6.789948	82.155881	66.262895	26.519127	-13.938543	82.981372	63.468476
0.295000	-2.809327	-3.522153	94.733797	0.173661	-0.283736	0.186921	121.515404	18.621338	27.203385	17.520607	31.867717	-24.190559	-57.422544	54.707310	12.697022	51.497508	62.134811	54.455185	6.859928	59.758396	70.893042	52.495135	-6.786496	82.218009	66.283705	26.544088	-13.937166	83.045555	63.489569
0.305000	-2.809327	-3.522153	94.733797	0.173590	-0.283720	0.186876	121.460878	18.556040	27.193365	17.453932	31.914381	-24.123299	-57.329469	54.722123	12.677031	51.472275	62.092164	54.493670	6.864367	59.778265	70.996321	52.525519	-6.782982	82.276881	66.314937	26.568786	-13.934844	83.098104	63.521200
0.315000	-2.809327	-3.522153	94.733797	0.173516	-0.283705	0.186842	121.412722	18.490798	27.180214	17.384637	31.960428	-24.063516	-57.254618	54.742618	12.658561	51.431997	62.059318	54.535136	6.868332	59.787766	71.097530	52.557219	-6.779624	82.327637	66.352049	26.597266	-13.933564	83.137265	63.555639
0.325000	-2.809327	-3.522153	94.733797	0.173445	-0.283691	0.186819	121.370238	18.426959	27.166533	17.314421	32.006622	-24.012524	-57.191922	54.769177	12.641314	51.381451	62.030743	54.581258	6.871687	59.786428	71.194837	52.593235	-6.776414	82.366345	66.390981	26.632373	-13.934041	83.160518	63.586428
0.335000	-2.809327	-3.522153	94.733797	0.173381	-0.283677	0.186805	121.331100	18.364898	27.155242	17.245374	32.053029	-23.969156	-57.136032	54.801330	12.624381	51.323730	62.006013	54.633609	6.874250	59.773798	71.292010	52.636295	-6.773255	82.391576	66.430085	26.675091	-13.936053	83.167079	63.610828
0.345000	-2.809327	-3.522153	94.733797	0.173325	-0.283663	0.186797	121.292407	18.303860	27.148753	17.179710	32.099327	-23.930428	-57.085243	54.837804	12.606725	51.260929	61.988026	54.693422	6.875937	59.750357	71.396083	52.688365	-6.770108	82.405722	66.470176	26.724492	-13.939191	83.160616	63.630515
0.355000	-2.809327	-3.522153	94.733797	0.173277	-0.283650	0.186791	121.251674	18.242245	27.148580	17.119116	32.144781	-23.892771	-57.040890	54.876115	12.587761	51.196502	61.978501	54.760442	6.876931	59.719648	71.511739	52.749939	-6.767034	82.415237	66.512629	26.778406	-13.943453	83.150132	63.650536
0.365000	-2.809327	-3.522153	94.733797	0.173235	-0.283638	0.186784	121.207404	18.178121	27.155431	17.064201	32.188276	-23.853470	-57.004384	54.912386	12.567614	51.137263	61.973765	54.831884	6.877703	59.689777	71.636035	52.819694	-6.764099	82.429181	66.556968	26.834571	-13.949298	83.148117	63.677036
0.375000	-2.809327	-3.522153	94.733797	0.173195	-0.283627	0.186776	121.159182	18.109829	27.169502	17.014221	32.228712	-23.811401	-56.974517	54.942186	12.546939	51.092662	61.963934	54.903012	6.878827	59.671805	71.758035	52.895029	-6.761280	82.456054	66.600039	26.891887	-13.957183	83.166427	63.714573
0.385000	-2.809327	-3.522153	94.733797	0.173156	-0.283616	0.186766	121.107400	18.036573	27.190611	16.967094	32.265804	-23.766508	-56.947196	54.962495	12.526439	51.070628	61.936745	54.969633	6.880690	59.674591	71.864698	52.973388	-6.758448	82.500105	66.637644	26.951234	-13.966994	83.211562	63.763984
0.395000	-2.809327	-3.522153	94.733797	0.173120	-0.283605	0.186754	121.052810	17.958845	27.218058	16.919841	32.300792	-23.718754	-56.917530	54.973656	12.506420	51.072304	61.884127	55.030867	6.883333	59.699296	71.949120	53.053489	-6.755446	82.559347	66.667222	27.015339	-13.977839	83.281849	63.821681
